<?xml version="1.0" encoding="utf-8"?>
<!-- Generator: Adobe Illustrator 22.1.0, SVG Export Plug-In . SVG Version: 6.00 Build 0)  -->
<svg version="1.1" id="Layer_1" xmlns="http://www.w3.org/2000/svg" xmlns:xlink="http://www.w3.org/1999/xlink" x="0px" y="0px"
	 viewBox="0 0 58 58" style="enable-background:new 0 0 58 58;" xml:space="preserve">
<style type="text/css">
	.st0{fill:#FE540C;}
	.st1{fill:#FFFFFF;}
	.st2{font-family:'FuturaStd-Medium';}
	.st3{font-size:10px;}
</style>
<title>Button/Chat/Mobile</title>
<desc>Created with Sketch.</desc>
<g id="Button_x2F_Chat_x2F_Mobile">
	<path id="Fill-1" class="st0" d="M0.7,19.7c-0.5,1.9-0.7,4-0.7,6c0.2,4.5,1.7,8.9,4.4,12.5c1.2,1.6,2.6,3.1,4.1,4.4
		c4.4,4,9,7.7,14,11c2.2,1.6,4.6,2.9,7.1,4c0.6,0.2,1.2,0.3,1.8,0.4c0,0,0,0,0.1,0c0.4,0,0.7-0.3,0.8-0.7c0.1-0.7,0-1.5-0.2-2.2
		c-0.1-0.9-0.4-1.9-0.4-2.8c0-0.1,0-0.1,0-0.2c-0.1-1.5,1-2.7,2.4-2.8c6.1-0.9,11.8-3.6,16.3-7.7c3.6-3.2,6.1-7.6,7.2-12.3
		c1.3-5.7,0.2-11.7-3.1-16.6c-2.5-3.8-6-6.9-10-9c-3-1.6-6.3-2.7-9.7-3.2c-1.6-0.2-3.2-0.4-4.8-0.4c-1.2,0-2.5,0-3.7,0.1
		c-2.5,0.2-5,0.7-7.4,1.5c-3.9,1.3-7.5,3.3-10.6,6C4.5,10.8,1.9,15,0.7,19.7"/>
	<text transform="matrix(1 0 0 1 15.075 16.8101)" class="st1 st2 st3">CHAT</text>
	<text transform="matrix(1 0 0 1 40.9248 16.8101)" class="st1 st2 st3"> </text>
	<text transform="matrix(1 0 0 1 15.2 28.8101)" class="st1 st2 st3">WITH</text>
	<text transform="matrix(1 0 0 1 40.7997 28.8101)" class="st1 st2 st3"> </text>
	<text transform="matrix(1 0 0 1 21.545 40.8101)" class="st1 st2 st3">US</text>
</g>
</svg>
