<?xml version="1.0" encoding="UTF-8"?>
<svg width="24px" height="24px" viewBox="0 0 24 24" version="1.1" xmlns="http://www.w3.org/2000/svg" xmlns:xlink="http://www.w3.org/1999/xlink">
    <!-- Generator: Sketch 51.2 (57519) - http://www.bohemiancoding.com/sketch -->
    <title>Special icon/Check</title>
    <desc>Created with Sketch.</desc>
    <defs></defs>
    <g id="Special-icon/Check" stroke="none" stroke-width="1" fill="none" fill-rule="evenodd">
        <g id="special-icon/progress-number">
            <circle id="Oval" fill="#F8FFE5" cx="12" cy="12" r="12"></circle>
            <path d="M14,0.16591688 C8.32457332,1.11807306 4,6.05400742 4,12 C4,17.9459926 8.32457332,22.8819269 14,23.8340831 C13.3495831,23.9432024 12.6814244,24 12,24 C5.372583,24 0,18.627417 0,12 C0,5.372583 5.372583,0 12,0 C12.6814244,0 13.3495831,0.0567975924 14,0.16591688 Z" id="Combined-Shape" fill="#FE540C"></path>
            <circle id="Oval-Copy" stroke="#1E646B" stroke-width="1.5" stroke-linecap="round" stroke-linejoin="round" cx="12" cy="12" r="12"></circle>
        </g>
        <path d="M9,11.4807523 L11.337782,14.1988075 C11.626361,14.4750249 11.7009722,14.4750249 11.9904126,14.1988075 L12.568432,13.6480167 L17.4389563,9" id="Fill-4" stroke="#1E646B" stroke-width="1.5" stroke-linecap="round" stroke-linejoin="round"></path>
    </g>
</svg>