<?xml version="1.0" encoding="UTF-8"?>
<svg width="32px" height="32px" viewBox="0 0 32 32" version="1.1" xmlns="http://www.w3.org/2000/svg" xmlns:xlink="http://www.w3.org/1999/xlink">
    <!-- Generator: Sketch 51.2 (57519) - http://www.bohemiancoding.com/sketch -->
    <title>Special icon/FAQ</title>
    <desc>Created with Sketch.</desc>
    <defs></defs>
    <g id="Special-icon/FAQ" stroke="none" stroke-width="1" fill="none" fill-rule="evenodd">
        <rect id="Rectangle" fill="#F8FFE5" transform="translate(16.000000, 16.000000) rotate(-315.000000) translate(-16.000000, -16.000000) " x="4" y="4" width="24" height="24" rx="2"></rect>
        <path d="M16.5,-0.0789535143 C16.8349575,0.00718041984 17.1519446,0.181381863 17.4142136,0.443650814 L18.5,1.52943725 L5.44365081,14.5857864 C4.66260223,15.366835 4.66260223,16.633165 5.44365081,17.4142136 L18.5,30.4705627 L17.4142136,31.5563492 C17.1519446,31.8186181 16.8349575,31.9928196 16.5,32.0789535 C16.1650425,31.9928196 15.8480554,31.8186181 15.5857864,31.5563492 L1.44365081,17.4142136 C0.66260223,16.633165 0.66260223,15.366835 1.44365081,14.5857864 L15.5857864,0.443650814 C15.8480554,0.181381863 16.1650425,0.00718041984 16.5,-0.0789535143 Z" id="Combined-Shape" fill="#FE540C"></path>
        <rect id="Rectangle-Copy-4" stroke="#1E646B" stroke-width="1.5" transform="translate(16.000000, 16.000000) rotate(-315.000000) translate(-16.000000, -16.000000) " x="4.75" y="4.75" width="22.5" height="22.5" rx="2"></rect>
        <path d="M15.36,18.656 L15.36,18.048 C15.36,17.7919987 15.3786665,17.5626677 15.416,17.36 C15.4533335,17.1573323 15.5119996,16.9653342 15.592,16.784 C15.6720004,16.6026658 15.778666,16.4266675 15.912,16.256 C16.045334,16.0853325 16.2133323,15.904001 16.416,15.712 L17.136,15.024 C17.3386677,14.8426658 17.5119993,14.6400011 17.656,14.416 C17.8000007,14.1919989 17.872,13.9200016 17.872,13.6 C17.872,13.1839979 17.7413346,12.8346681 17.48,12.552 C17.2186654,12.2693319 16.8480024,12.128 16.368,12.128 C16.1226654,12.128 15.9013343,12.1733329 15.704,12.264 C15.5066657,12.3546671 15.3360007,12.4773326 15.192,12.632 C15.0479993,12.7866674 14.938667,12.9653323 14.864,13.168 C14.789333,13.3706677 14.7466667,13.5786656 14.736,13.792 L12.768,13.616 C12.8320003,13.1039974 12.967999,12.648002 13.176,12.248 C13.384001,11.847998 13.6533317,11.5093347 13.984,11.232 C14.3146683,10.9546653 14.6933312,10.7440007 15.12,10.6 C15.5466688,10.4559993 16.0053309,10.384 16.496,10.384 C16.954669,10.384 17.3893313,10.450666 17.8,10.584 C18.2106687,10.717334 18.5733318,10.9146654 18.888,11.176 C19.2026682,11.4373346 19.4506658,11.7599981 19.632,12.144 C19.8133342,12.5280019 19.904,12.9706642 19.904,13.472 C19.904,13.813335 19.866667,14.1119987 19.792,14.368 C19.717333,14.6240013 19.6106674,14.8586656 19.472,15.072 C19.3333326,15.2853344 19.1653343,15.4906657 18.968,15.688 C18.7706657,15.8853343 18.5493346,16.0906656 18.304,16.304 C18.0906656,16.4853342 17.917334,16.6453326 17.784,16.784 C17.650666,16.9226674 17.5440004,17.0613326 17.464,17.2 C17.3839996,17.3386674 17.3280002,17.4879992 17.296,17.648 C17.2639998,17.8080008 17.248,18.0053322 17.248,18.24 L17.248,18.656 L15.36,18.656 Z M15.04,20.88 C15.04,20.538665 15.1653321,20.2453346 15.416,20 C15.6666679,19.7546654 15.9679982,19.632 16.32,19.632 C16.661335,19.632 16.9599987,19.7493322 17.216,19.984 C17.4720013,20.2186678 17.6,20.506665 17.6,20.848 C17.6,21.189335 17.4746679,21.4826654 17.224,21.728 C16.9733321,21.9733346 16.6720018,22.096 16.32,22.096 C16.1493325,22.096 15.9866674,22.0640003 15.832,22 C15.6773326,21.9359997 15.5413339,21.8506672 15.424,21.744 C15.3066661,21.6373328 15.2133337,21.5093341 15.144,21.36 C15.0746663,21.2106659 15.04,21.0506675 15.04,20.88 Z" id="?" fill="#1E646B"></path>
    </g>
</svg>