<?xml version="1.0" encoding="UTF-8"?>
<svg width="40px" height="40px" viewBox="0 0 40 40" version="1.1" xmlns="http://www.w3.org/2000/svg" xmlns:xlink="http://www.w3.org/1999/xlink">
    <!-- Generator: Sketch 51.2 (57519) - http://www.bohemiancoding.com/sketch -->
    <title>Special icon/pharmacy</title>
    <desc>Created with Sketch.</desc>
    <defs></defs>
    <g id="Special-icon/pharmacy" stroke="none" stroke-width="1" fill="none" fill-rule="evenodd">
        <g id="special-icon/pharmacy">
            <path d="M26.382678,1.2765356 L26.382678,13.617322 L38.7228991,13.617322 C39.3916952,13.617322 39.9994347,14.2250615 40,14.8938576 L40,25.1061424 C39.9994347,25.7749385 39.3916952,26.382678 38.7228991,26.3832434 L26.382678,26.3832434 L26.382678,38.7234644 C26.382678,39.3916952 25.7749385,40 25.1061424,40 L14.8938576,40 C14.2250615,40 13.6167566,39.3916952 13.6167566,38.7234644 L13.6167566,26.3832434 L1.2765356,26.3832434 C0.607739492,26.382678 0,25.7749385 0,25.1061424 L0,14.8938576 C0,14.2250615 0.607739492,13.617322 1.2765356,13.617322 L13.6167566,13.617322 L13.6167566,1.2765356 C13.6167566,0.608304831 14.2250615,0 14.8938576,0 L25.1061424,0 C25.7958561,0.00961076406 26.3691099,0.738898154 26.382678,1.2765356" id="Fill-1" fill="#F8FFE5"></path>
            <path d="M2.92682927,26.3832434 L1.2765356,26.3832434 C0.607739492,26.382678 0,25.7749385 0,25.1061424 L0,14.8938576 C0,14.2250615 0.607739492,13.617322 1.2765356,13.617322 L2.92682927,13.617322 L2.92682927,26.3832434 Z" id="Fill-1" fill="#FE540C"></path>
            <path d="M13.6167566,14.3489186 L13.6167566,1.2765356 C13.6167566,0.608304831 14.2250615,0 14.8938576,0 L16.5853659,0 L16.5853659,14.3489186 L13.6167566,14.3489186 Z" id="Fill-1" fill="#FE540C"></path>
            <path d="M16.5853659,40 L14.8938576,40 C14.2250615,40 13.6167566,39.3916952 13.6167566,38.7234644 L13.6167566,25.6563215 L16.5853659,25.6563215 L16.5853659,40 Z" id="Fill-1" fill="#FE540C"></path>
            <path d="M26.382678,1.2765356 L26.382678,13.617322 L38.7228991,13.617322 C39.3916952,13.617322 39.9994347,14.2250615 40,14.8938576 L40,25.1061424 C39.9994347,25.7749385 39.3916952,26.382678 38.7228991,26.3832434 L26.382678,26.3832434 L26.382678,38.7234644 C26.382678,39.3916952 25.7749385,40 25.1061424,40 L14.8938576,40 C14.2250615,40 13.6167566,39.3916952 13.6167566,38.7234644 L13.6167566,26.3832434 L1.2765356,26.3832434 C0.607739492,26.382678 0,25.7749385 0,25.1061424 L0,14.8938576 C0,14.2250615 0.607739492,13.617322 1.2765356,13.617322 L13.6167566,13.617322 L13.6167566,1.2765356 C13.6167566,0.608304831 14.2250615,0 14.8938576,0 L25.1061424,0 C25.7958561,0.00961076406 26.3691099,0.738898154 26.382678,1.2765356" id="Fill-1" stroke="#1E646B" stroke-width="1.5"></path>
            <path d="M15.6097561,19.005612 L17.8905191,21.6573731 C18.1720595,21.9268536 18.2448509,21.9268536 18.5272318,21.6573731 L19.0911532,21.1200163 L23.8428842,16.5853659" id="Fill-4" stroke="#1E646B" stroke-width="1.5" stroke-linecap="round" stroke-linejoin="round"></path>
        </g>
    </g>
</svg>