<?xml version="1.0" encoding="UTF-8"?>
<svg width="31px" height="34px" viewBox="0 0 31 34" version="1.1" xmlns="http://www.w3.org/2000/svg" xmlns:xlink="http://www.w3.org/1999/xlink">
    <!-- Generator: Sketch 51.2 (57519) - http://www.bohemiancoding.com/sketch -->
    <title>Special icon/Shield</title>
    <desc>Created with Sketch.</desc>
    <defs></defs>
    <g id="Special-icon/Shield" stroke="none" stroke-width="1" fill="none" fill-rule="evenodd">
        <g id="special-icon/shield">
            <path d="M30.0820021,3.68797611 C27.599407,2.56332597 25.1925009,1.67654246 22.8083014,1.05475073 C20.3516568,0.431915731 17.9198814,0.0719859552 15.5367632,0 L15.4621556,0 C13.0552494,0.0719859552 10.6223927,0.431915731 8.19061737,1.05475073 C5.75776073,1.67654246 3.30003488,2.58627801 0.793651901,3.73596675 C0.297349145,3.97487666 0,4.45478302 0,4.95764144 C0,11.9736639 0.942867108,17.3872164 3.27516568,21.8889468 C5.60854552,26.4397111 9.30648762,30.0317059 14.74203,33.3128049 C15.2383328,33.5997054 15.8341123,33.5757101 16.2806767,33.2888095 C21.6924311,30.0077106 25.3665853,26.4397111 27.7237531,21.8889468 C30.0322637,17.3872164 31,11.9736639 31,4.95764144 C31,4.38279707 30.6020928,3.87993866 30.0820021,3.68797611" id="Fill-1" fill="#F8FFE5"></path>
            <path d="M2.75927929,2.80627806 C2.02672511,3.10208224 1.52086792,3.3806367 0.780307459,3.72033499 C0.292349525,3.95522787 0,4.42706511 0,4.92146847 C0,11.8195237 0.927013766,17.1420529 3.22009713,21.5680913 C5.51424358,26.0423391 9.15000859,29.5739383 14.4941579,32.7998689 C14.9821158,33.0819455 15.567878,33.0583537 16.0069338,32.7762771 C16.6341955,32.3959738 17.2118167,32.0133575 17.79227,31.6240928 C11.2147859,28.361735 6.94476641,24.3262768 4.98221156,19.5177182 C2.80914775,14.1933805 2.06817033,8.62290049 2.75927929,2.80627806 Z" id="Fill-1" fill="#FE540C"></path>
            <path d="M22.1829654,1.0258326 C19.7936747,0.420073883 17.4285714,0.0700123139 15.1107912,0 C12.6973132,0.0700123139 10.3311583,0.420073883 7.96605494,1.0258326 C5.59990001,1.63057664 3.20955771,2.51536994 0.77189232,3.63353762 C0.289196714,3.86589733 0,4.33264609 0,4.82171762 C0,11.6453815 0.91701649,16.9105105 3.18537035,21.2888168 C5.45477584,25.7148126 9.05133134,29.2083256 14.3378473,32.3994666 C14.8205429,32.6785012 15.3999879,32.6551637 15.8343088,32.3761291 C21.097689,29.1849882 24.6711088,25.7148126 26.96365,21.2888168 C29.2088681,16.9105105 30.150072,11.6453815 30.150072,4.82171762 C30.150072,4.26263378 29.7630742,3.77356225 29.2572428,3.58686275 C26.8427132,2.49304718 24.5017972,1.63057664 22.1829654,1.0258326 Z" id="Fill-1" stroke="#1E646B" stroke-width="1.5" stroke-linecap="round" stroke-linejoin="round"></path>
            <path d="M10.7288676,15.1973499 L13.8611587,18.7597756 C14.247813,19.1218007 14.3477812,19.1218007 14.7355897,18.7597756 L15.5100524,18.0378803 L22.0358532,11.9459459" id="Fill-4" stroke="#1E646B" stroke-width="1.5" stroke-linecap="round" stroke-linejoin="round"></path>
        </g>
    </g>
</svg>