<?xml version="1.0" encoding="UTF-8"?>
<svg width="26px" height="26px" viewBox="0 0 26 26" version="1.1" xmlns="http://www.w3.org/2000/svg" xmlns:xlink="http://www.w3.org/1999/xlink">
    <!-- Generator: Sketch 51.2 (57519) - http://www.bohemiancoding.com/sketch -->
    <title>Special icon/Ask Mutoni</title>
    <desc>Created with Sketch.</desc>
    <defs></defs>
    <g id="Special-icon/Ask-Mutoni" stroke="none" stroke-width="1" fill="none" fill-rule="evenodd">
        <g id="Group" transform="translate(1.000000, 1.000000)">
            <path d="M0.278282035,8.15622253 C0.0733570721,8.96110827 -0.0190389198,9.79118043 0.00325116382,10.6216124 C0.0658072051,12.4929627 0.698917485,14.3006275 1.81773588,15.8013778 C2.32537456,16.4637804 2.89772638,17.0736513 3.52616293,17.6223553 C5.33417633,19.2842986 7.26730181,20.8048383 9.30792302,22.1706614 C10.2282878,22.8258679 11.2148037,23.3814081 12.2512926,23.8300861 C12.484979,23.9164395 12.7283723,23.9732888 12.9760799,23.9984752 C12.9843488,23.9991948 12.9922581,23.9999144 13.000527,23.9999144 C13.1687812,24.0038723 13.308274,23.8700245 13.3118692,23.7016354 C13.3467424,23.4033563 13.3222952,23.1007596 13.2406847,22.8118354 C13.1828024,22.4214461 13.0839351,22.0324959 13.0735091,21.6388683 C13.0702734,21.6147613 13.0673973,21.5910141 13.0655997,21.5665473 C13.0174244,20.9638725 13.4664617,20.4356774 14.069013,20.3874635 C16.5931852,20.0316154 18.9491032,18.9144182 20.8229083,17.1851912 C22.3213772,15.8409564 23.3582256,14.0584781 23.7864109,12.0910596 C24.3166992,9.7220977 23.849686,7.23871755 22.4953836,5.22488406 C21.4578162,3.64785491 20.0280152,2.36766561 18.3461924,1.51096782 C17.0954311,0.841369086 15.7400502,0.388733295 14.3379321,0.17284977 C13.6764199,0.0803796599 13.0105935,0.025329361 12.3429696,0.00805867898 C11.8338928,-0.0102914207 11.3244566,0.00266159085 10.8168179,0.0472775194 C9.77889092,0.135429959 8.75498514,0.346636008 7.76703111,0.676577995 C6.15279763,1.1972171 4.66403575,2.04671877 3.3938605,3.17111213 C1.87597771,4.47936629 0.789875407,6.21758847 0.278282035,8.15622253" id="Fill-1" fill="#F8FFE5"></path>
            <path d="M13.5104523,0.0769136039 C12.5774729,0.178202087 11.6576439,0.379144567 10.7670311,0.676577995 C9.15279763,1.1972171 7.66403575,2.04671877 6.3938605,3.17111213 C4.87597771,4.47936629 3.78987541,6.21758847 3.27828203,8.15622253 C3.07335707,8.96110827 2.98096108,9.79118043 3.00325116,10.6216124 C3.06580721,12.4929627 3.69891748,14.3006275 4.81773588,15.8013778 C5.32537456,16.4637804 5.89772638,17.0736513 6.52616293,17.6223553 C8.33417633,19.2842986 10.2673018,20.8048383 12.307923,22.1706614 C12.6105026,22.3860674 12.9202321,22.5907012 13.2365365,22.784307 C13.2379408,22.7934824 13.2393241,22.8026585 13.2406847,22.8118354 C13.3222952,23.1007596 13.3467424,23.4033563 13.3118692,23.7016354 C13.308274,23.8700245 13.1687812,24.0038723 13.000527,23.9999144 C12.9922581,23.9999144 12.9843488,23.9991948 12.9760799,23.9984752 C12.7283723,23.9732888 12.484979,23.9164395 12.2512926,23.8300861 C11.2148037,23.3814081 10.2282878,22.8258679 9.30792302,22.1706614 C7.26730181,20.8048383 5.33417633,19.2842986 3.52616293,17.6223553 C2.89772638,17.0736513 2.32537456,16.4637804 1.81773588,15.8013778 C0.698917485,14.3006275 0.0658072051,12.4929627 0.00325116382,10.6216124 C-0.0190389198,9.79118043 0.0733570721,8.96110827 0.278282035,8.15622253 C0.789875407,6.21758847 1.87597771,4.47936629 3.3938605,3.17111213 C4.66403575,2.04671877 6.15279763,1.1972171 7.76703111,0.676577995 C8.75498514,0.346636008 9.77889092,0.135429959 10.8168179,0.0472775194 C11.3244566,0.00266159085 11.8338928,-0.0102914207 12.3429696,0.00805867898 C12.7329108,0.0181460218 13.1222389,0.0411215608 13.5104523,0.0769136039 Z" id="Combined-Shape" fill="#FE540C"></path>
            <path d="M0.278282035,8.15622253 C0.0733570721,8.96110827 -0.0190389198,9.79118043 0.00325116382,10.6216124 C0.0658072051,12.4929627 0.698917485,14.3006275 1.81773588,15.8013778 C2.32537456,16.4637804 2.89772638,17.0736513 3.52616293,17.6223553 C5.33417633,19.2842986 7.26730181,20.8048383 9.30792302,22.1706614 C10.2282878,22.8258679 11.2148037,23.3814081 12.2512926,23.8300861 C12.484979,23.9164395 12.7283723,23.9732888 12.9760799,23.9984752 C12.9843488,23.9991948 12.9922581,23.9999144 13.000527,23.9999144 C13.1687812,24.0038723 13.308274,23.8700245 13.3118692,23.7016354 C13.3467424,23.4033563 13.3222952,23.1007596 13.2406847,22.8118354 C13.1828024,22.4214461 13.0839351,22.0324959 13.0735091,21.6388683 C13.0702734,21.6147613 13.0673973,21.5910141 13.0655997,21.5665473 C13.0174244,20.9638725 13.4664617,20.4356774 14.069013,20.3874635 C16.5931852,20.0316154 18.9491032,18.9144182 20.8229083,17.1851912 C22.3213772,15.8409564 23.3582256,14.0584781 23.7864109,12.0910596 C24.3166992,9.7220977 23.849686,7.23871755 22.4953836,5.22488406 C21.4578162,3.64785491 20.0280152,2.36766561 18.3461924,1.51096782 C17.0954311,0.841369086 15.7400502,0.388733295 14.3379321,0.17284977 C13.6764199,0.0803796599 13.0105935,0.025329361 12.3429696,0.00805867898 C11.8338928,-0.0102914207 11.3244566,0.00266159085 10.8168179,0.0472775194 C9.77889092,0.135429959 8.75498514,0.346636008 7.76703111,0.676577995 C6.15279763,1.1972171 4.66403575,2.04671877 3.3938605,3.17111213 C1.87597771,4.47936629 0.789875407,6.21758847 0.278282035,8.15622253" id="Fill-1-Copy" stroke="#1E646B" stroke-width="1.5"></path>
        </g>
    </g>
</svg>