<?xml version="1.0" encoding="UTF-8"?>
<svg width="29px" height="32px" viewBox="0 0 29 32" version="1.1" xmlns="http://www.w3.org/2000/svg" xmlns:xlink="http://www.w3.org/1999/xlink">
    <!-- Generator: Sketch 51.2 (57519) - http://www.bohemiancoding.com/sketch -->
    <title>Special icon/Cart</title>
    <desc>Created with Sketch.</desc>
    <defs></defs>
    <g id="Special-icon/Cart" stroke="none" stroke-width="1" fill="none" fill-rule="evenodd">
        <g id="cart" transform="translate(0.181818, 0.068182)">
            <path d="M5.41659268,27.2981107 C5.41659268,29.0074496 6.81428199,30.3981712 8.53218494,30.3981712 C10.2500879,30.3981712 11.6477051,29.0075214 11.6477051,27.2981107 C11.6477051,25.5887001 10.2500879,24.1981221 8.53218494,24.1981221 C6.81428199,24.1981221 5.41659268,25.5887719 5.41659268,27.2981107 Z" id="Path" fill="#1E646B"></path>
            <path d="M10.2053013,27.2981107 C10.2053013,28.2160731 9.45474643,28.962958 8.53218494,28.962958 C7.60955134,28.962958 6.85899651,28.2161448 6.85899651,27.2981107 C6.85899651,26.3801484 7.60955134,25.6333352 8.53218494,25.6333352 C9.45474643,25.6333352 10.2053013,26.3801484 10.2053013,27.2981107 Z" id="Path" fill="#F8FFE5"></path>
            <path d="M8.0016535,27.2981107 C8.0016535,29.3379873 9.45474643,28.962958 8.53218494,28.962958 C7.60955134,28.962958 6.85899651,28.2161448 6.85899651,27.2981107 C6.85899651,26.3801484 7.60955134,25.6333352 8.53218494,25.6333352 C9.45474643,25.6333352 8.0016535,25.2582342 8.0016535,27.2981107 Z" id="Path" fill="#F16722"></path>
            <path d="M22.7746915,24.1981221 C21.0567687,24.1981221 19.6591353,25.5887719 19.6591353,27.2981107 C19.6591353,29.0074496 21.0567687,30.3981712 22.7746915,30.3981712 C24.4926143,30.3981712 25.8902477,29.0075214 25.8902477,27.2981107 C25.8902477,25.5887001 24.4926143,24.1981221 22.7746915,24.1981221 Z" id="Path" fill="#1E646B"></path>
            <path d="M22.7746915,28.962958 C21.8521193,28.962958 21.1015558,28.2161448 21.1015558,27.2981107 C21.1015558,26.3801484 21.8521193,25.6333352 22.7746915,25.6333352 C23.6972637,25.6333352 24.4478272,26.3801484 24.4478272,27.2981107 C24.4478272,28.2161448 23.6972637,28.962958 22.7746915,28.962958 Z" id="Path" fill="#F8FFE5"></path>
            <path d="M22.7746915,28.962958 C21.8521193,28.962958 21.1015558,28.2161448 21.1015558,27.2981107 C21.1015558,26.3801484 21.8521193,25.6333352 22.7746915,25.6333352 C23.6972637,25.6333352 22.2097834,25.4415029 22.2097834,27.2981107 C22.2097834,29.1547186 23.6972637,28.962958 22.7746915,28.962958 Z" id="Path" fill="#F16722"></path>
            <path d="M4.3399105,1.251599 L1.92006644,0.329279942 C1.55418228,0.189870572 1.1465596,0.380580272 1.01037882,0.755623358 C0.874198036,1.13066644 1.06046505,1.54788014 1.42670292,1.68743443 L3.84654698,2.60975349 C4.397637,2.8198095 4.76790724,3.36563631 4.76790724,3.96798043 L4.76790724,18.8037749 C4.76790724,20.8014445 6.35467863,22.4266795 8.3050704,22.4266795 L23.7449291,22.4266795 C24.1355734,22.4266795 24.4523617,22.1022846 24.4523617,21.7020986 C24.4523617,21.3019125 24.1355734,20.9775176 23.7449291,20.9775176 L8.3050704,20.9775176 C7.13483534,20.9775176 6.1827725,20.0023766 6.1827725,18.8037749 L6.1827725,18.3459122 L22.8778996,16.8652311 C24.3974649,16.730459 25.6571902,15.6190968 26.0125336,14.0997955 L27.6510891,7.09382254 C27.7011046,6.87999871 27.6536358,6.65450912 27.5219826,6.48075462 C27.3904002,6.30707257 27.1888526,6.2039647 26.9742175,6.20048671 L6.1827725,5.86797653 L6.1827725,3.96798043 C6.1827725,2.76336464 5.44216128,1.67178348 4.3399105,1.251599 Z" id="Path" fill="#1E646B"></path>
            <path d="M26.069482,7.63537432 L24.6365772,13.7622132 C24.423357,14.6738085 23.6675359,15.3405679 22.7557968,15.4214311 L6.1827725,16.891316 L6.1827725,7.31735575 L26.069482,7.63537432 Z" id="Path" fill="#F8FFE5"></path>
            <polygon id="Path" fill="#F16722" points="8.26300604 16.7113592 6.1827725 16.891316 6.1827725 7.31735575 8.27484686 7.35381525"></polygon>
        </g>
    </g>
</svg>