<?xml version="1.0" encoding="UTF-8"?>
<svg width="28px" height="24px" viewBox="0 0 28 24" version="1.1" xmlns="http://www.w3.org/2000/svg" xmlns:xlink="http://www.w3.org/1999/xlink">
    <!-- Generator: Sketch 51.2 (57519) - http://www.bohemiancoding.com/sketch -->
    <title>Special icon/Learn</title>
    <desc>Created with Sketch.</desc>
    <defs></defs>
    <g id="Special-icon/Learn" stroke="none" stroke-width="1" fill="none" fill-rule="evenodd">
        <g id="learn">
            <path d="M27.039657,0 L21.1575563,0 C18.3665595,0 15.8756699,0.786885246 14.5251876,2.1185372 L14.0150054,2.60277427 L13.4748124,2.1185372 C12.1243301,0.786885246 9.63344051,0 6.84244373,0 L0.96034298,0 C0.420150054,0 0,0.42370744 0,0.968474149 L0,20.4892812 C0,21.0340479 0.420150054,21.4577554 0.96034298,21.4577554 L6.84244373,21.4577554 C9.09324759,21.4577554 11.8242229,22.3959647 12.9346195,23.5762926 C13.204716,23.8486759 13.5648446,24 13.9249732,24 L14.1050375,24 C14.4651661,24 14.8252947,23.8486759 15.0653805,23.5762926 C16.1757771,22.3959647 18.9067524,21.4577554 21.1575563,21.4577554 L27.039657,21.4577554 C27.5798499,21.4577554 28,21.0340479 28,20.4892812 C28,20.4892812 28,20.4892812 28,20.4892812 L28,0.968474149 C27.9699893,0.42370744 27.5498392,0 27.039657,0 Z" id="Path" fill="#1E646B"></path>
            <path d="M26.9710145,20.0827389 L21.4057971,20.0827389 C19.3478261,20.0827389 17.4637681,20.532097 16.0724638,21.3708987 L15,22 L15,4.26533524 C15,2.70756063 17.5797101,1 21.4057971,1 L27,1 L27,20.0827389 L26.9710145,20.0827389 Z" id="Shape" fill="#F8FFE5" fill-rule="nonzero"></path>
            <path d="M12.9710145,22 L11.8985507,21.3708987 C10.5072464,20.532097 8.62318841,20.0827389 6.56521739,20.0827389 L1,20.0827389 L1,1 L6.5942029,1 C10.4202899,1 13,2.67760342 13,4.26533524 L13,22 L12.9710145,22 Z" id="Path" fill="#F8FFE5"></path>
            <polygon id="Path" fill="#F16722" points="3.08984375 20.0827389 1 20.0827389 1 1 3.08886719 1"></polygon>
            <polygon id="Path-Copy" fill="#F16722" points="27.0898438 20.0827389 25 20.0827389 25 1 27.0888672 1"></polygon>
        </g>
    </g>
</svg>