<?xml version="1.0" encoding="UTF-8"?>
<svg width="24px" height="23px" viewBox="0 0 24 23" version="1.1" xmlns="http://www.w3.org/2000/svg" xmlns:xlink="http://www.w3.org/1999/xlink">
    <!-- Generator: Sketch 51.2 (57519) - http://www.bohemiancoding.com/sketch -->
    <title>Special icon/Search</title>
    <desc>Created with Sketch.</desc>
    <defs></defs>
    <g id="Special-icon/Search" stroke="none" stroke-width="1" fill="none" fill-rule="evenodd">
        <g id="search" transform="translate(0.774194, 0.000000)">
            <path d="M8.71323448,0.116919368 C3.97575785,0.116919368 0.116833404,3.97584381 0.116833404,8.71332045 C0.116833404,13.4507971 3.97575785,17.3097215 8.71323448,17.3097215 C10.773362,17.3097215 12.6653439,16.5781592 14.1481371,15.3637542 L21.0000705,22.2156876 C21.2157947,22.4397641 21.5357276,22.5298458 21.8366748,22.4512454 C22.137622,22.3726451 22.3726451,22.137622 22.4512454,21.8366748 C22.5298458,21.5357276 22.4397641,21.2157947 22.2156876,21.0000705 L15.3637542,14.1481371 C16.5781678,12.6653439 17.3097215,10.773362 17.3097215,8.71323448 C17.3097215,3.97575785 13.4507971,0.116833404 8.71332045,0.116833404 L8.71323448,0.116919368 Z" id="Shape" fill="#1E646B"></path>
            <path d="M8.7132932,1.83619958 C12.5216174,1.83619958 15.5904728,4.90505501 15.5904728,8.71337917 C15.5904728,12.5217033 12.5216174,15.5905587 8.7132932,15.5905587 C4.90496904,15.5905587 1.83611362,12.5217033 1.83611362,8.71337917 C1.83611362,4.90505501 4.90496904,1.83619958 8.7132932,1.83619958 Z" id="Path" fill="#F8FFE5"></path>
            <path d="M8.7132932,1.83619958 C12.5216174,1.83619958 3.94821856,2.09362793 3.94821856,8.71337917 C3.94821856,15.3331304 12.5216174,15.5905587 8.7132932,15.5905587 C4.90496904,15.5905587 1.83611362,12.5217033 1.83611362,8.71337917 C1.83611362,4.90505501 4.90496904,1.83619958 8.7132932,1.83619958 Z" id="Path" fill="#F16722"></path>
        </g>
    </g>
</svg>